<mxfile host="65bd71144e">
    <diagram id="514E4GRlaf4DPk-O0UqL" name="Page-1">
        <mxGraphModel dx="823" dy="455" grid="1" gridSize="10" guides="1" tooltips="1" connect="1" arrows="1" fold="1" page="1" pageScale="1" pageWidth="850" pageHeight="1100" math="0" shadow="0">
            <root>
                <mxCell id="0"/>
                <mxCell id="1" parent="0"/>
                <mxCell id="2" value="" style="rounded=1;whiteSpace=wrap;html=1;arcSize=2;" vertex="1" parent="1">
                    <mxGeometry x="263" y="140" width="540" height="350" as="geometry"/>
                </mxCell>
                <mxCell id="3" value="K8s cluster" style="text;html=1;strokeColor=none;fillColor=none;align=center;verticalAlign=middle;whiteSpace=wrap;rounded=0;" vertex="1" parent="1">
                    <mxGeometry x="458" y="140" width="150" height="30" as="geometry"/>
                </mxCell>
                <mxCell id="7" value="" style="group;fillColor=#b1ddf0;strokeColor=#10739e;" vertex="1" connectable="0" parent="1">
                    <mxGeometry x="458" y="180" width="300" height="230" as="geometry"/>
                </mxCell>
                <mxCell id="5" value="" style="rounded=0;whiteSpace=wrap;html=1;fillColor=#1ba1e2;strokeColor=#006EAF;fontColor=#ffffff;" vertex="1" parent="7">
                    <mxGeometry width="300" height="230" as="geometry"/>
                </mxCell>
                <mxCell id="6" value="Node" style="text;html=1;strokeColor=none;fillColor=none;align=center;verticalAlign=middle;whiteSpace=wrap;rounded=0;" vertex="1" parent="7">
                    <mxGeometry x="120.83333333333333" width="50.00000000000001" height="21.5625" as="geometry"/>
                </mxCell>
                <mxCell id="13" value="" style="rounded=1;whiteSpace=wrap;html=1;fillColor=#60a917;fontColor=#ffffff;strokeColor=#2D7600;" vertex="1" parent="7">
                    <mxGeometry x="175.47" y="64.4" width="94.53" height="135.6" as="geometry"/>
                </mxCell>
                <mxCell id="27" value="" style="rounded=1;whiteSpace=wrap;html=1;fillColor=#60a917;fontColor=#ffffff;strokeColor=#2D7600;" vertex="1" parent="7">
                    <mxGeometry x="39.62" y="64.4" width="90.82" height="135.6" as="geometry"/>
                </mxCell>
                <mxCell id="33" style="edgeStyle=none;html=1;exitX=0.5;exitY=0;exitDx=0;exitDy=0;" edge="1" parent="7" source="28" target="32">
                    <mxGeometry relative="1" as="geometry"/>
                </mxCell>
                <mxCell id="32" value="" style="rounded=0;whiteSpace=wrap;html=1;fillColor=#6a00ff;fontColor=#ffffff;strokeColor=#3700CC;" vertex="1" parent="7">
                    <mxGeometry x="55.02999999999997" y="104.20999999999998" width="60" height="60" as="geometry"/>
                </mxCell>
                <mxCell id="28" value="webapp" style="text;html=1;strokeColor=none;fillColor=none;align=center;verticalAlign=middle;whiteSpace=wrap;rounded=0;" vertex="1" parent="7">
                    <mxGeometry x="68.05377358490567" y="104.22187500000001" width="33.9622641509434" height="21.5625" as="geometry"/>
                </mxCell>
                <mxCell id="34" value="" style="rounded=0;whiteSpace=wrap;html=1;fillColor=#6a00ff;fontColor=#ffffff;strokeColor=#3700CC;" vertex="1" parent="7">
                    <mxGeometry x="192.45" y="102.75" width="60" height="60" as="geometry"/>
                </mxCell>
                <mxCell id="14" value="mongo" style="text;html=1;strokeColor=none;fillColor=none;align=center;verticalAlign=middle;whiteSpace=wrap;rounded=0;" vertex="1" parent="7">
                    <mxGeometry x="205.47283018867927" y="104.225" width="33.9622641509434" height="21.5625" as="geometry"/>
                </mxCell>
                <mxCell id="39" value="Pod" style="text;html=1;strokeColor=none;fillColor=none;align=center;verticalAlign=middle;whiteSpace=wrap;rounded=0;" vertex="1" parent="7">
                    <mxGeometry x="55.03" y="64.4" width="60" height="30" as="geometry"/>
                </mxCell>
                <mxCell id="40" value="Pod" style="text;html=1;strokeColor=none;fillColor=none;align=center;verticalAlign=middle;whiteSpace=wrap;rounded=0;" vertex="1" parent="7">
                    <mxGeometry x="192.73999999999995" y="64.4" width="60" height="30" as="geometry"/>
                </mxCell>
                <mxCell id="26" value="27017" style="text;html=1;strokeColor=#006EAF;fillColor=#1ba1e2;align=center;verticalAlign=middle;whiteSpace=wrap;rounded=0;rotation=90;fontColor=#ffffff;" vertex="1" parent="7">
                    <mxGeometry x="170.83000000000004" y="127.00000000000006" width="46.51" height="14.38" as="geometry"/>
                </mxCell>
                <mxCell id="21" value="3000" style="text;html=1;strokeColor=#006EAF;fillColor=#1ba1e2;align=center;verticalAlign=middle;whiteSpace=wrap;rounded=0;rotation=90;fontColor=#ffffff;" vertex="1" parent="7">
                    <mxGeometry x="25" y="125" width="51.7" height="17.97" as="geometry"/>
                </mxCell>
                <mxCell id="43" style="edgeStyle=none;html=1;entryX=0.25;entryY=1;entryDx=0;entryDy=0;" edge="1" parent="1" source="35" target="21">
                    <mxGeometry relative="1" as="geometry"/>
                </mxCell>
                <mxCell id="47" value="2" style="edgeLabel;html=1;align=center;verticalAlign=middle;resizable=0;points=[];" vertex="1" connectable="0" parent="43">
                    <mxGeometry x="-0.0268" y="3" relative="1" as="geometry">
                        <mxPoint x="-13" y="-2" as="offset"/>
                    </mxGeometry>
                </mxCell>
                <mxCell id="35" value="webapp-service" style="rounded=1;whiteSpace=wrap;html=1;fillColor=#f0a30a;fontColor=#000000;strokeColor=#BD7000;" vertex="1" parent="1">
                    <mxGeometry x="291" y="190" width="120" height="60" as="geometry"/>
                </mxCell>
                <mxCell id="45" value="4" style="edgeStyle=none;html=1;entryX=0.5;entryY=1;entryDx=0;entryDy=0;" edge="1" parent="1" source="36" target="26">
                    <mxGeometry relative="1" as="geometry">
                        <mxPoint x="681" y="370" as="targetPoint"/>
                        <Array as="points">
                            <mxPoint x="350" y="430"/>
                            <mxPoint x="420" y="430"/>
                            <mxPoint x="610" y="430"/>
                            <mxPoint x="610" y="314"/>
                        </Array>
                    </mxGeometry>
                </mxCell>
                <mxCell id="36" value="mongo-service" style="rounded=1;whiteSpace=wrap;html=1;fillColor=#f0a30a;fontColor=#000000;strokeColor=#BD7000;" vertex="1" parent="1">
                    <mxGeometry x="305" y="410" width="120" height="60" as="geometry"/>
                </mxCell>
                <mxCell id="42" style="edgeStyle=none;html=1;entryX=0.5;entryY=1;entryDx=0;entryDy=0;" edge="1" parent="1" source="51" target="49">
                    <mxGeometry relative="1" as="geometry"/>
                </mxCell>
                <mxCell id="46" value="1" style="edgeLabel;html=1;align=center;verticalAlign=middle;resizable=0;points=[];" vertex="1" connectable="0" parent="42">
                    <mxGeometry x="-0.2056" y="-1" relative="1" as="geometry">
                        <mxPoint as="offset"/>
                    </mxGeometry>
                </mxCell>
                <mxCell id="44" style="edgeStyle=none;html=1;exitX=0.5;exitY=1;exitDx=0;exitDy=0;entryX=0.5;entryY=1;entryDx=0;entryDy=0;" edge="1" parent="1" source="32" target="50">
                    <mxGeometry relative="1" as="geometry">
                        <Array as="points">
                            <mxPoint x="543" y="390"/>
                            <mxPoint x="280" y="390"/>
                            <mxPoint x="280" y="440"/>
                        </Array>
                    </mxGeometry>
                </mxCell>
                <mxCell id="48" value="3" style="edgeLabel;html=1;align=center;verticalAlign=middle;resizable=0;points=[];" vertex="1" connectable="0" parent="44">
                    <mxGeometry x="0.3546" y="-2" relative="1" as="geometry">
                        <mxPoint as="offset"/>
                    </mxGeometry>
                </mxCell>
                <mxCell id="49" value="30100" style="text;html=1;strokeColor=#006EAF;fillColor=#1ba1e2;align=center;verticalAlign=middle;whiteSpace=wrap;rounded=0;rotation=90;fontColor=#ffffff;" vertex="1" parent="1">
                    <mxGeometry x="269" y="211.01" width="51.7" height="17.97" as="geometry"/>
                </mxCell>
                <mxCell id="53" style="edgeStyle=none;html=1;exitX=0.75;exitY=1;exitDx=0;exitDy=0;entryX=0;entryY=0.25;entryDx=0;entryDy=0;" edge="1" parent="1" source="50" target="36">
                    <mxGeometry relative="1" as="geometry"/>
                </mxCell>
                <mxCell id="50" value="27017" style="text;html=1;strokeColor=#006EAF;fillColor=#1ba1e2;align=center;verticalAlign=middle;whiteSpace=wrap;rounded=0;rotation=90;fontColor=#ffffff;" vertex="1" parent="1">
                    <mxGeometry x="280.00000000000006" y="432.81000000000006" width="46.51" height="14.38" as="geometry"/>
                </mxCell>
                <mxCell id="51" value="Client" style="html=1;strokeColor=none;fillColor=#0079D6;labelPosition=center;verticalLabelPosition=middle;verticalAlign=top;align=center;fontSize=12;outlineConnect=0;spacingTop=-6;fontColor=#FFFFFF;sketch=0;shape=mxgraph.sitemap.user;" vertex="1" parent="1">
                    <mxGeometry x="70" y="185" width="120" height="70" as="geometry"/>
                </mxCell>
            </root>
        </mxGraphModel>
    </diagram>
</mxfile>